<?xml version="1.0" encoding="UTF-8"?><svg xmlns="http://www.w3.org/2000/svg" xmlns:xlink="http://www.w3.org/1999/xlink" fill-opacity="1" color-rendering="auto" color-interpolation="auto" text-rendering="auto" stroke="black" stroke-linecap="square" width="220" stroke-miterlimit="10" shape-rendering="auto" stroke-opacity="1" fill="black" stroke-dasharray="none" font-weight="normal" stroke-width="1" height="375" font-family="'Dialog'" font-style="normal" stroke-linejoin="miter" font-size="12px" stroke-dashoffset="0" image-rendering="auto">
  <!--Generated by ySVG 2.5-->
  <defs id="genericDefs"/>
  <g>
    <defs id="defs1">
      <clipPath clipPathUnits="userSpaceOnUse" id="clipPath1">
        <path d="M0 0 L220 0 L220 375 L0 375 L0 0 Z"/>
      </clipPath>
      <clipPath clipPathUnits="userSpaceOnUse" id="clipPath2">
        <path d="M195 -117 L415 -117 L415 258 L195 258 L195 -117 Z"/>
      </clipPath>
    </defs>
    <g fill="white" text-rendering="geometricPrecision" shape-rendering="geometricPrecision" transform="translate(-195,117)" stroke="white">
      <rect x="195" width="220" height="375" y="-117" clip-path="url(#clipPath2)" stroke="none"/>
    </g>
    <g transform="matrix(1,0,0,1,-195,117)" fill-opacity="0.502" fill="rgb(202,236,255)" text-rendering="geometricPrecision" shape-rendering="geometricPrecision" stroke="rgb(202,236,255)" stroke-opacity="0.502">
      <rect x="210.4548" y="-101.528" clip-path="url(#clipPath2)" width="189.5028" rx="4" ry="4" height="344.0182" stroke="none"/>
    </g>
    <g fill="rgb(153,204,255)" text-rendering="geometricPrecision" shape-rendering="geometricPrecision" transform="matrix(1,0,0,1,-195,117)" stroke="rgb(153,204,255)">
      <rect x="210.4548" width="189.5028" height="21.4609" y="-101.528" clip-path="url(#clipPath2)" stroke="none"/>
    </g>
    <g font-size="15px" stroke-linecap="butt" transform="matrix(1,0,0,1,-195,117)" text-rendering="geometricPrecision" font-family="sans-serif" shape-rendering="geometricPrecision" stroke-miterlimit="1.45">
      <text x="359.0954" xml:space="preserve" y="-85.6047" clip-path="url(#clipPath2)" stroke="none">atom</text>
    </g>
    <g stroke-linecap="round" transform="matrix(1,0,0,1,-195,117)" stroke-dashoffset="2" fill="rgb(102,102,153)" text-rendering="geometricPrecision" shape-rendering="geometricPrecision" stroke-dasharray="0,4" stroke="rgb(102,102,153)" stroke-miterlimit="1.45">
      <rect x="210.4548" y="-101.528" clip-path="url(#clipPath2)" fill="none" width="189.5028" rx="4" ry="4" height="344.0182"/>
    </g>
    <g fill="rgb(255,204,0)" text-rendering="geometricPrecision" shape-rendering="geometricPrecision" transform="matrix(1,0,0,1,-195,117)" stroke="rgb(255,204,0)">
      <rect x="226.2068" y="-32.4617" clip-path="url(#clipPath2)" width="98.096" rx="4" ry="4" height="26" stroke="none"/>
    </g>
    <g text-rendering="geometricPrecision" stroke-miterlimit="1.45" shape-rendering="geometricPrecision" font-family="sans-serif" transform="matrix(1,0,0,1,-195,117)" stroke-linecap="butt">
      <text x="235.0742" xml:space="preserve" y="-15.3074" clip-path="url(#clipPath2)" stroke="none">atom-domain</text>
      <rect x="226.2068" y="-32.4617" clip-path="url(#clipPath2)" fill="none" width="98.096" rx="4" ry="4" height="26"/>
    </g>
    <g fill="rgb(255,204,0)" text-rendering="geometricPrecision" shape-rendering="geometricPrecision" transform="matrix(1,0,0,1,-195,117)" stroke="rgb(255,204,0)">
      <rect x="226.2068" y="-75.0671" clip-path="url(#clipPath2)" width="98.096" rx="4" ry="4" height="26" stroke="none"/>
    </g>
    <g text-rendering="geometricPrecision" stroke-miterlimit="1.45" shape-rendering="geometricPrecision" font-family="sans-serif" transform="matrix(1,0,0,1,-195,117)" stroke-linecap="butt">
      <text x="244.417" xml:space="preserve" y="-57.9128" clip-path="url(#clipPath2)" stroke="none">atom-core</text>
      <rect x="226.2068" y="-75.0671" clip-path="url(#clipPath2)" fill="none" width="98.096" rx="4" ry="4" height="26"/>
    </g>
    <g fill="rgb(255,204,0)" text-rendering="geometricPrecision" shape-rendering="geometricPrecision" transform="matrix(1,0,0,1,-195,117)" stroke="rgb(255,204,0)">
      <rect x="300.9577" y="211.4902" clip-path="url(#clipPath2)" width="94" rx="4" ry="4" height="26" stroke="none"/>
    </g>
    <g text-rendering="geometricPrecision" stroke-miterlimit="1.45" shape-rendering="geometricPrecision" font-family="sans-serif" transform="matrix(1,0,0,1,-195,117)" stroke-linecap="butt">
      <text x="311.2546" xml:space="preserve" y="228.6445" clip-path="url(#clipPath2)" stroke="none">atom-server</text>
      <rect x="300.9577" y="211.4902" clip-path="url(#clipPath2)" fill="none" width="94" rx="4" ry="4" height="26"/>
    </g>
    <g fill="rgb(255,204,0)" text-rendering="geometricPrecision" shape-rendering="geometricPrecision" transform="matrix(1,0,0,1,-195,117)" stroke="rgb(255,204,0)">
      <rect x="300.9577" y="152.5276" clip-path="url(#clipPath2)" width="94" rx="4" ry="4" height="26" stroke="none"/>
    </g>
    <g text-rendering="geometricPrecision" stroke-miterlimit="1.45" shape-rendering="geometricPrecision" font-family="sans-serif" transform="matrix(1,0,0,1,-195,117)" stroke-linecap="butt">
      <text x="313.7682" xml:space="preserve" y="169.6819" clip-path="url(#clipPath2)" stroke="none">atom-client</text>
      <rect x="300.9577" y="152.5276" clip-path="url(#clipPath2)" fill="none" width="94" rx="4" ry="4" height="26"/>
    </g>
    <g fill="rgb(255,204,0)" text-rendering="geometricPrecision" shape-rendering="geometricPrecision" transform="matrix(1,0,0,1,-195,117)" stroke="rgb(255,204,0)">
      <rect x="226.2068" y="52.749" clip-path="url(#clipPath2)" width="98.096" rx="4" ry="4" height="26" stroke="none"/>
    </g>
    <g text-rendering="geometricPrecision" stroke-miterlimit="1.45" shape-rendering="geometricPrecision" font-family="sans-serif" transform="matrix(1,0,0,1,-195,117)" stroke-linecap="butt">
      <text x="227.917" xml:space="preserve" y="69.9033" clip-path="url(#clipPath2)" stroke="none">atom-generator</text>
      <rect x="226.2068" y="52.749" clip-path="url(#clipPath2)" fill="none" width="98.096" rx="4" ry="4" height="26"/>
    </g>
    <g fill="rgb(255,204,0)" text-rendering="geometricPrecision" shape-rendering="geometricPrecision" transform="matrix(1,0,0,1,-195,117)" stroke="rgb(255,204,0)">
      <rect x="226.2068" y="10.1436" clip-path="url(#clipPath2)" width="98.096" rx="4" ry="4" height="26" stroke="none"/>
    </g>
    <g text-rendering="geometricPrecision" stroke-miterlimit="1.45" shape-rendering="geometricPrecision" font-family="sans-serif" transform="matrix(1,0,0,1,-195,117)" stroke-linecap="butt">
      <text x="231.8633" xml:space="preserve" y="27.2979" clip-path="url(#clipPath2)" stroke="none">atom-analyzer</text>
      <rect x="226.2068" y="10.1436" clip-path="url(#clipPath2)" fill="none" width="98.096" rx="4" ry="4" height="26"/>
    </g>
    <g fill="rgb(255,204,0)" text-rendering="geometricPrecision" shape-rendering="geometricPrecision" transform="matrix(1,0,0,1,-195,117)" stroke="rgb(255,204,0)">
      <rect x="226.2068" y="112.3596" clip-path="url(#clipPath2)" width="98.096" rx="4" ry="4" height="26" stroke="none"/>
    </g>
    <g text-rendering="geometricPrecision" stroke-miterlimit="1.45" shape-rendering="geometricPrecision" font-family="sans-serif" transform="matrix(1,0,0,1,-195,117)" stroke-linecap="butt">
      <text x="232.1269" xml:space="preserve" y="129.5139" clip-path="url(#clipPath2)" stroke="none">atom-reflector</text>
      <rect x="226.2068" y="112.3596" clip-path="url(#clipPath2)" fill="none" width="98.096" rx="4" ry="4" height="26"/>
      <path fill="none" d="M275.2549 -49.0441 L275.2549 -40.4329" clip-path="url(#clipPath2)"/>
      <path d="M275.2549 -32.4329 L280.2549 -44.4329 L275.2549 -41.4329 L270.2549 -44.4329 Z" clip-path="url(#clipPath2)" stroke="none"/>
      <path fill="none" d="M324.3246 -24.6937 L354.7723 -24.6937 L359.1473 -24.0687 L362.2723 -22.1937 L364.1473 -19.0687 L364.7723 -14.6937 L364.7723 144.5141" clip-path="url(#clipPath2)"/>
      <path d="M364.7723 152.5141 L369.7723 140.5141 L364.7723 143.5141 L359.7723 140.5141 Z" clip-path="url(#clipPath2)" stroke="none"/>
      <path fill="none" d="M324.3173 -60.2127 L372.5977 -60.2127 L376.9727 -59.5877 L380.0977 -57.7127 L381.9727 -54.5877 L382.5977 -50.2127 L382.5977 144.5212" clip-path="url(#clipPath2)"/>
      <path d="M382.5977 152.5212 L387.5977 140.5212 L382.5977 143.5212 L377.5977 140.5212 Z" clip-path="url(#clipPath2)" stroke="none"/>
      <text x="346.7911" xml:space="preserve" y="134.9383" clip-path="url(#clipPath2)" stroke="none">sources</text>
      <path fill="none" d="M347.9577 178.512 L347.9577 203.514" clip-path="url(#clipPath2)"/>
      <path d="M347.9577 211.514 L352.9577 199.514 L347.9577 202.514 L342.9577 199.514 Z" clip-path="url(#clipPath2)" stroke="none"/>
      <text x="301.027" xml:space="preserve" y="196.6663" clip-path="url(#clipPath2)" stroke="none">war (javascript)</text>
      <path fill="none" d="M275.2549 -6.4388 L275.2549 2.1724" clip-path="url(#clipPath2)"/>
      <path d="M275.2549 10.1724 L280.2549 -1.8276 L275.2549 1.1724 L270.2549 -1.8276 Z" clip-path="url(#clipPath2)" stroke="none"/>
      <path fill="none" d="M275.2549 36.1666 L275.2549 44.7778" clip-path="url(#clipPath2)"/>
      <path d="M275.2549 52.7778 L280.2549 40.7778 L275.2549 43.7778 L270.2549 40.7778 Z" clip-path="url(#clipPath2)" stroke="none"/>
      <path fill="none" d="M226.2351 23.1436 L221.3044 23.1436 L219.1472 23.7686 L217.6064 25.6436 L216.3737 33.1436 L216.3737 214.4902 L216.9987 218.8652 L218.8737 221.9902 L221.9987 223.8652 L226.3737 224.4902 L292.9588 224.4902" clip-path="url(#clipPath2)"/>
      <path d="M300.9588 224.4902 L288.9588 219.4902 L291.9588 224.4902 L288.9588 229.4902 Z" clip-path="url(#clipPath2)" stroke="none"/>
      <text x="245.8278" xml:space="preserve" y="221.6602" clip-path="url(#clipPath2)" stroke="none">jar+</text>
      <text x="216.777" xml:space="preserve" y="235.6289" clip-path="url(#clipPath2)" stroke="none">dependencies</text>
      <path fill="none" d="M275.2549 78.7597 L275.2549 104.3899" clip-path="url(#clipPath2)"/>
      <path d="M275.2549 112.3899 L280.2549 100.3899 L275.2549 103.3899 L270.2549 100.3899 Z" clip-path="url(#clipPath2)" stroke="none"/>
      <text x="255.4648" xml:space="preserve" y="96.8877" clip-path="url(#clipPath2)" stroke="none">output</text>
      <path fill="none" d="M324.3351 -16.16 L334.8857 -16.16 L339.2607 -15.535 L342.3857 -13.66 L344.2607 -10.535 L344.8857 -6.16 L344.8857 115.3596 L344.4929 119.7346 L343.3145 122.8596 L341.3505 124.7346 L338.6009 125.3596 L332.316 125.3596" clip-path="url(#clipPath2)"/>
      <path d="M324.316 125.3596 L336.316 130.3596 L333.316 125.3596 L336.316 120.3596 Z" clip-path="url(#clipPath2)" stroke="none"/>
      <text x="332.0478" xml:space="preserve" y="91.1084" clip-path="url(#clipPath2)" stroke="none">jar+</text>
      <text x="333.5771" xml:space="preserve" y="105.0771" clip-path="url(#clipPath2)" stroke="none">dep</text>
      <path fill="none" d="M274.4489 138.3469 L273.8263 148.3788 L274.1726 152.7454 L275.8312 155.8644 L278.8018 157.7358 L283.0847 158.3596 L292.9626 158.3596" clip-path="url(#clipPath2)"/>
      <path d="M300.9626 158.3596 L288.9626 153.3596 L291.9626 158.3596 L288.9626 163.3596 Z" clip-path="url(#clipPath2)" stroke="none"/>
      <text x="250.6448" xml:space="preserve" y="152.5139" clip-path="url(#clipPath2)" stroke="none">sources</text>
      <path fill="none" d="M239.4549 138.376 L239.0748 160.328 L239.6241 164.7023 L241.445 167.8268 L244.5375 169.7016 L248.9017 170.3265 L292.9257 170.3265" clip-path="url(#clipPath2)"/>
      <path d="M300.9257 170.3265 L288.9257 165.3265 L291.9257 170.3265 L288.9257 175.3265 Z" clip-path="url(#clipPath2)" stroke="none"/>
      <text x="230.2612" xml:space="preserve" y="167.4964" clip-path="url(#clipPath2)" stroke="none">jar+dep</text>
      <text x="227.935" xml:space="preserve" y="181.4651" clip-path="url(#clipPath2)" stroke="none">provided</text>
    </g>
  </g>
</svg>
