<?xml version="1.0" encoding="UTF-8"?><svg xmlns="http://www.w3.org/2000/svg" xmlns:xlink="http://www.w3.org/1999/xlink" fill-opacity="1" color-rendering="auto" color-interpolation="auto" stroke="black" text-rendering="auto" stroke-linecap="square" width="269" stroke-miterlimit="10" stroke-opacity="1" shape-rendering="auto" fill="black" stroke-dasharray="none" font-weight="normal" stroke-width="1" height="208" font-family="'Dialog'" font-style="normal" stroke-linejoin="miter" font-size="12" stroke-dashoffset="0" image-rendering="auto">
  <!--Generated by ySVG 2.5-->
  <defs id="genericDefs"/>
  <g>
    <defs id="defs1">
      <clipPath clipPathUnits="userSpaceOnUse" id="clipPath1">
        <path d="M0 0 L269 0 L269 208 L0 208 L0 0 Z"/>
      </clipPath>
      <clipPath clipPathUnits="userSpaceOnUse" id="clipPath2">
        <path d="M43 -40 L312 -40 L312 168 L43 168 L43 -40 Z"/>
      </clipPath>
    </defs>
    <g fill="white" text-rendering="geometricPrecision" shape-rendering="geometricPrecision" transform="translate(-43,40)" stroke="white">
      <rect x="43" width="269" height="208" y="-40" clip-path="url(#clipPath2)" stroke="none"/>
    </g>
    <g transform="matrix(1,0,0,1,-43,40)" fill-opacity="0.502" fill="rgb(202,236,255)" text-rendering="geometricPrecision" shape-rendering="geometricPrecision" stroke="rgb(202,236,255)" stroke-opacity="0.502">
      <rect x="58.656" y="-24.8209" clip-path="url(#clipPath2)" width="238" rx="4" ry="4" height="177.4609" stroke="none"/>
    </g>
    <g fill="rgb(153,204,255)" text-rendering="geometricPrecision" shape-rendering="geometricPrecision" transform="matrix(1,0,0,1,-43,40)" stroke="rgb(153,204,255)">
      <rect x="58.656" width="238" height="21.4609" y="-24.8209" clip-path="url(#clipPath2)" stroke="none"/>
    </g>
    <g font-size="15" stroke-linecap="butt" transform="matrix(1,0,0,1,-43,40)" text-rendering="geometricPrecision" font-family="sans-serif" shape-rendering="geometricPrecision" stroke-miterlimit="1.45">
      <text x="255.7937" xml:space="preserve" y="-8.8976" clip-path="url(#clipPath2)" stroke="none">atom</text>
    </g>
    <g stroke-linecap="round" transform="matrix(1,0,0,1,-43,40)" stroke-dashoffset="2" fill="rgb(102,102,153)" text-rendering="geometricPrecision" shape-rendering="geometricPrecision" stroke-dasharray="0,4" stroke="rgb(102,102,153)" stroke-miterlimit="1.45">
      <rect x="58.656" y="-24.8209" clip-path="url(#clipPath2)" fill="none" width="238" rx="4" ry="4" height="177.4609"/>
    </g>
    <g fill="rgb(255,204,0)" text-rendering="geometricPrecision" shape-rendering="geometricPrecision" transform="matrix(1,0,0,1,-43,40)" stroke="rgb(255,204,0)">
      <rect x="197.656" y="16.9409" clip-path="url(#clipPath2)" width="94" rx="4" ry="4" height="26" stroke="none"/>
    </g>
    <g text-rendering="geometricPrecision" stroke-miterlimit="1.45" shape-rendering="geometricPrecision" font-family="sans-serif" transform="matrix(1,0,0,1,-43,40)" stroke-linecap="butt">
      <text x="204.4753" xml:space="preserve" y="34.0952" clip-path="url(#clipPath2)" stroke="none">atom-domain</text>
      <rect x="197.656" y="16.9409" clip-path="url(#clipPath2)" fill="none" width="94" rx="4" ry="4" height="26"/>
    </g>
    <g fill="rgb(255,204,0)" text-rendering="geometricPrecision" shape-rendering="geometricPrecision" transform="matrix(1,0,0,1,-43,40)" stroke="rgb(255,204,0)">
      <rect x="63.656" y="1.64" clip-path="url(#clipPath2)" width="94" rx="4" ry="4" height="26" stroke="none"/>
    </g>
    <g text-rendering="geometricPrecision" stroke-miterlimit="1.45" shape-rendering="geometricPrecision" font-family="sans-serif" transform="matrix(1,0,0,1,-43,40)" stroke-linecap="butt">
      <text x="79.8181" xml:space="preserve" y="18.7943" clip-path="url(#clipPath2)" stroke="none">atom-core</text>
      <rect x="63.656" y="1.64" clip-path="url(#clipPath2)" fill="none" width="94" rx="4" ry="4" height="26"/>
    </g>
    <g fill="rgb(255,204,0)" text-rendering="geometricPrecision" shape-rendering="geometricPrecision" transform="matrix(1,0,0,1,-43,40)" stroke="rgb(255,204,0)">
      <rect x="130.656" y="121.64" clip-path="url(#clipPath2)" width="94" rx="4" ry="4" height="26" stroke="none"/>
    </g>
    <g text-rendering="geometricPrecision" stroke-miterlimit="1.45" shape-rendering="geometricPrecision" font-family="sans-serif" transform="matrix(1,0,0,1,-43,40)" stroke-linecap="butt">
      <text x="140.9529" xml:space="preserve" y="138.7943" clip-path="url(#clipPath2)" stroke="none">atom-server</text>
      <rect x="130.656" y="121.64" clip-path="url(#clipPath2)" fill="none" width="94" rx="4" ry="4" height="26"/>
    </g>
    <g fill="rgb(255,204,0)" text-rendering="geometricPrecision" shape-rendering="geometricPrecision" transform="matrix(1,0,0,1,-43,40)" stroke="rgb(255,204,0)">
      <rect x="130.656" y="72.9409" clip-path="url(#clipPath2)" width="94" rx="4" ry="4" height="26" stroke="none"/>
    </g>
    <g text-rendering="geometricPrecision" stroke-miterlimit="1.45" shape-rendering="geometricPrecision" font-family="sans-serif" transform="matrix(1,0,0,1,-43,40)" stroke-linecap="butt">
      <text x="143.4666" xml:space="preserve" y="90.0952" clip-path="url(#clipPath2)" stroke="none">atom-client</text>
      <rect x="130.656" y="72.9409" clip-path="url(#clipPath2)" fill="none" width="94" rx="4" ry="4" height="26"/>
      <path fill="none" d="M157.6643 14.64 L190.1761 27.0817" clip-path="url(#clipPath2)"/>
      <path d="M197.6477 29.9409 L188.2273 20.9823 L189.2421 26.7243 L184.6533 30.3218 Z" clip-path="url(#clipPath2)" stroke="none"/>
      <path fill="none" d="M110.656 27.6185 L110.656 124.64 L112.1611 132.14 L114.0424 134.015 L116.6763 134.64 L122.6965 134.64" clip-path="url(#clipPath2)"/>
      <path d="M130.6965 134.64 L118.6965 129.64 L121.6965 134.64 L118.6965 139.64 Z" clip-path="url(#clipPath2)" stroke="none"/>
      <path fill="none" d="M244.656 42.9516 L244.656 124.64 L243.1574 132.14 L241.2842 134.015 L238.6616 134.64 L232.6672 134.64" clip-path="url(#clipPath2)"/>
      <path d="M224.6672 134.64 L236.6672 139.64 L233.6672 134.64 L236.6672 129.64 Z" clip-path="url(#clipPath2)" stroke="none"/>
      <path fill="none" d="M128.248 27.6202 L128.248 45.3809 L128.873 49.7559 L130.748 52.8809 L133.873 54.7559 L138.248 55.3809 L147.432 55.3809 L154.932 56.5787 L156.807 58.0759 L157.432 60.1721 L157.432 64.9632" clip-path="url(#clipPath2)"/>
      <path d="M157.432 72.9632 L162.432 60.9632 L157.432 63.9632 L152.432 60.9632 Z" clip-path="url(#clipPath2)" stroke="none"/>
      <path fill="none" d="M226.688 42.9773 L226.688 49.1791 L226.063 51.8924 L224.188 53.8305 L221.063 54.9933 L216.688 55.3809 L202.76 55.3809 L195.26 56.5785 L193.385 58.0755 L192.76 60.1713 L192.76 64.9616" clip-path="url(#clipPath2)"/>
      <path d="M192.76 72.9616 L197.76 60.9616 L192.76 63.9616 L187.76 60.9616 Z" clip-path="url(#clipPath2)" stroke="none"/>
      <path fill="none" d="M177.656 98.9242 L177.656 113.6302" clip-path="url(#clipPath2)"/>
      <path d="M177.656 121.6302 L182.656 109.6302 L177.656 112.6302 L172.656 109.6302 Z" clip-path="url(#clipPath2)" stroke="none"/>
    </g>
  </g>
</svg>
