<?xml version="1.0" encoding="UTF-8" standalone="no"?>
<!-- Created with Inkscape (http://www.inkscape.org/) -->
<svg
   xmlns:dc="http://purl.org/dc/elements/1.1/"
   xmlns:cc="http://creativecommons.org/ns#"
   xmlns:rdf="http://www.w3.org/1999/02/22-rdf-syntax-ns#"
   xmlns:svg="http://www.w3.org/2000/svg"
   xmlns="http://www.w3.org/2000/svg"
   xmlns:sodipodi="http://sodipodi.sourceforge.net/DTD/sodipodi-0.dtd"
   xmlns:inkscape="http://www.inkscape.org/namespaces/inkscape"
   width="100"
   height="100"
   id="svg2391"
   sodipodi:version="0.32"
   inkscape:version="0.46"
   version="1.0"
   sodipodi:docname="logo_v4.svg"
   inkscape:output_extension="org.inkscape.output.svg.inkscape">
  <defs
     id="defs2393">
    <inkscape:perspective
       sodipodi:type="inkscape:persp3d"
       inkscape:vp_x="0 : 526.18109 : 1"
       inkscape:vp_y="0 : 1000 : 0"
       inkscape:vp_z="744.09448 : 526.18109 : 1"
       inkscape:persp3d-origin="372.04724 : 350.78739 : 1"
       id="perspective2399" />
  </defs>
  <sodipodi:namedview
     id="base"
     pagecolor="#ffffff"
     bordercolor="#666666"
     borderopacity="1.0"
     inkscape:pageopacity="0.0"
     inkscape:pageshadow="2"
     inkscape:zoom="5.6"
     inkscape:cx="46.564257"
     inkscape:cy="42.933026"
     inkscape:document-units="px"
     inkscape:current-layer="layer1"
     showgrid="false"
     inkscape:window-width="1679"
     inkscape:window-height="975"
     inkscape:window-x="1"
     inkscape:window-y="49" />
  <metadata
     id="metadata2396">
    <rdf:RDF>
      <cc:Work
         rdf:about="">
        <dc:format>image/svg+xml</dc:format>
        <dc:type
           rdf:resource="http://purl.org/dc/dcmitype/StillImage" />
      </cc:Work>
    </rdf:RDF>
  </metadata>
  <g
     inkscape:label="Ebene 1"
     inkscape:groupmode="layer"
     id="layer1">
    <path
       sodipodi:type="arc"
       style="opacity:1;fill:none;fill-opacity:1;fill-rule:nonzero;stroke:#000000;stroke-width:1;stroke-linecap:butt;stroke-linejoin:miter;marker:none;marker-start:none;marker-mid:none;marker-end:none;stroke-miterlimit:4;stroke-dasharray:none;stroke-dashoffset:0;stroke-opacity:1;visibility:visible;display:inline;overflow:visible;enable-background:accumulate"
       id="path2401"
       sodipodi:cx="56.316006"
       sodipodi:cy="48.229683"
       sodipodi:rx="41.416256"
       sodipodi:ry="41.416256"
       d="M 97.732262,48.229683 A 41.416256,41.416256 0 1 1 14.89975,48.229683 A 41.416256,41.416256 0 1 1 97.732262,48.229683 z"
       transform="translate(-6.0609153,2.5253813)" />
    <path
       style="fill:#4d4d4d;fill-opacity:1;fill-rule:nonzero;stroke:none;stroke-width:1;stroke-linecap:butt;stroke-linejoin:miter;marker:none;marker-start:none;marker-mid:none;marker-end:none;stroke-miterlimit:4;stroke-dashoffset:0;stroke-opacity:1;visibility:visible;display:inline;overflow:visible;enable-background:accumulate"
       d="M 59.3125,2.2455356 C 47.865822,2.2455356 37.498788,6.8871841 30,14.401788 C 30.011796,14.422124 30.019386,14.443831 30.03125,14.464288 C 33.625119,13.445732 37.425021,12.901788 41.34375,12.901788 C 53.167798,12.901788 63.826345,17.852698 71.375,25.808038 L 84.59375,10.870538 C 77.597153,5.4669773 68.830107,2.2455356 59.3125,2.2455356 z"
       id="path3175" />
    <path
       sodipodi:type="arc"
       style="opacity:1;fill:#ff0000;fill-opacity:1;fill-rule:nonzero;stroke:none;stroke-width:1;stroke-linecap:butt;stroke-linejoin:miter;marker:none;marker-start:none;marker-mid:none;marker-end:none;stroke-miterlimit:4;stroke-dasharray:none;stroke-dashoffset:0;stroke-opacity:1;visibility:visible;display:inline;overflow:visible;enable-background:accumulate"
       id="path3173"
       sodipodi:cx="75.130096"
       sodipodi:cy="16.536146"
       sodipodi:rx="9.975256"
       sodipodi:ry="9.975256"
       d="M 85.105352,16.536146 A 9.975256,9.975256 0 1 1 65.15484,16.536146 A 9.975256,9.975256 0 1 1 85.105352,16.536146 z"
       transform="translate(3.1364216,2.0604159)" />
    <path
       style="fill:#4d4d4d;fill-opacity:1;fill-rule:nonzero;stroke:none;stroke-width:1;stroke-linecap:butt;stroke-linejoin:miter;marker:none;marker-start:none;marker-mid:none;marker-end:none;stroke-miterlimit:4;stroke-dashoffset:0;stroke-opacity:1;visibility:visible;display:inline;overflow:visible;enable-background:accumulate"
       d="M 87.444054,81.725932 C 93.167394,71.812818 94.331124,60.513879 91.572684,50.262438 C 91.549174,50.262485 91.526584,50.258205 91.502934,50.258251 C 90.588094,53.879911 89.159214,57.442694 87.199844,60.836413 C 81.287824,71.076339 71.670937,77.831457 61.007081,80.391116 L 67.33396,99.30764 C 75.511879,95.950185 82.685252,89.968422 87.444054,81.725932 z"
       id="path3193" />
    <path
       sodipodi:type="arc"
       style="opacity:1;fill:#ff0000;fill-opacity:1;fill-rule:nonzero;stroke:none;stroke-width:1;stroke-linecap:butt;stroke-linejoin:miter;marker:none;marker-start:none;marker-mid:none;marker-end:none;stroke-miterlimit:4;stroke-dasharray:none;stroke-dashoffset:0;stroke-opacity:1;visibility:visible;display:inline;overflow:visible;enable-background:accumulate"
       id="path3195"
       sodipodi:cx="75.130096"
       sodipodi:cy="16.536146"
       sodipodi:rx="9.975256"
       sodipodi:ry="9.975256"
       d="M 85.105352,16.536146 A 9.975256,9.975256 0 1 1 65.15484,16.536146 A 9.975256,9.975256 0 1 1 85.105352,16.536146 z"
       transform="matrix(-0.5,0.8660254,-0.8660254,-0.5,115.69241,33.168581)" />
    <path
       style="fill:#4d4d4d;fill-opacity:1;fill-rule:nonzero;stroke:none;stroke-width:1;stroke-linecap:butt;stroke-linejoin:miter;marker:none;marker-start:none;marker-mid:none;marker-end:none;stroke-miterlimit:4;stroke-dashoffset:0;stroke-opacity:1;visibility:visible;display:inline;overflow:visible;enable-background:accumulate"
       d="M 6.0559789,68.282369 C 11.779318,78.195483 20.98262,84.852774 31.239851,87.589614 C 31.251564,87.56923 31.266568,87.551804 31.278352,87.531301 C 28.599322,84.928197 26.228302,81.909357 24.268937,78.515638 C 18.356913,68.275713 17.315253,56.569686 20.43045,46.054686 L 0.88482194,42.075662 C -0.29649706,50.836675 1.2971759,60.03988 6.0559789,68.282369 z"
       id="path3197" />
    <path
       sodipodi:type="arc"
       style="opacity:1;fill:#ff0000;fill-opacity:1;fill-rule:nonzero;stroke:none;stroke-width:1;stroke-linecap:butt;stroke-linejoin:miter;marker:none;marker-start:none;marker-mid:none;marker-end:none;stroke-miterlimit:4;stroke-dasharray:none;stroke-dashoffset:0;stroke-opacity:1;visibility:visible;display:inline;overflow:visible;enable-background:accumulate"
       id="path3199"
       sodipodi:cx="75.130096"
       sodipodi:cy="16.536146"
       sodipodi:rx="9.975256"
       sodipodi:ry="9.975256"
       d="M 85.105352,16.536146 A 9.975256,9.975256 0 1 1 65.15484,16.536146 A 9.975256,9.975256 0 1 1 85.105352,16.536146 z"
       transform="matrix(-0.5,-0.8660254,0.8660254,-0.5,33.9837,117.02484)" />
    <path
       sodipodi:type="arc"
       style="opacity:1;fill:#808000;fill-opacity:1;fill-rule:nonzero;stroke:none;stroke-width:1;stroke-linecap:butt;stroke-linejoin:miter;marker:none;marker-start:none;marker-mid:none;marker-end:none;stroke-miterlimit:4;stroke-dasharray:none;stroke-dashoffset:0;stroke-opacity:1;visibility:visible;display:inline;overflow:visible;enable-background:accumulate"
       id="path3205"
       sodipodi:cx="75.130096"
       sodipodi:cy="16.536146"
       sodipodi:rx="9.975256"
       sodipodi:ry="9.975256"
       d="M 85.105352,16.536146 A 9.975256,9.975256 0 1 1 65.15484,16.536146 A 9.975256,9.975256 0 1 1 85.105352,16.536146 z"
       transform="matrix(0.4383713,-0.8987937,0.8987937,0.4383713,1.2197662,102.38849)" />
    <path
       sodipodi:type="arc"
       style="opacity:1;fill:#008080;fill-opacity:1;fill-rule:nonzero;stroke:none;stroke-width:1;stroke-linecap:butt;stroke-linejoin:miter;marker:none;marker-start:none;marker-mid:none;marker-end:none;stroke-miterlimit:4;stroke-dasharray:none;stroke-dashoffset:0;stroke-opacity:1;visibility:visible;display:inline;overflow:visible;enable-background:accumulate"
       id="path3201"
       sodipodi:cx="75.130096"
       sodipodi:cy="16.536146"
       sodipodi:rx="9.975256"
       sodipodi:ry="9.975256"
       d="M 85.105352,16.536146 A 9.975256,9.975256 0 1 1 65.15484,16.536146 A 9.975256,9.975256 0 1 1 85.105352,16.536146 z"
       transform="matrix(0.4383713,-0.8987937,0.8987937,0.4383713,-4.2702364,115.21428)" />
    <path
       sodipodi:type="arc"
       style="opacity:1;fill:#008000;fill-opacity:1;fill-rule:nonzero;stroke:none;stroke-width:1;stroke-linecap:butt;stroke-linejoin:miter;marker:none;marker-start:none;marker-mid:none;marker-end:none;stroke-miterlimit:4;stroke-dasharray:none;stroke-dashoffset:0;stroke-opacity:1;visibility:visible;display:inline;overflow:visible;enable-background:accumulate"
       id="path3203"
       sodipodi:cx="75.130096"
       sodipodi:cy="16.536146"
       sodipodi:rx="9.975256"
       sodipodi:ry="9.975256"
       d="M 85.105352,16.536146 A 9.975256,9.975256 0 1 1 65.15484,16.536146 A 9.975256,9.975256 0 1 1 85.105352,16.536146 z"
       transform="matrix(0.4383713,-0.8987937,0.8987937,0.4383713,10.529281,112.39582)" />
  </g>
</svg>
