<?xml version="1.0" encoding="UTF-8" standalone="no"?>
<!-- Created with Inkscape (http://www.inkscape.org/) -->

<svg
   xmlns:dc="http://purl.org/dc/elements/1.1/"
   xmlns:cc="http://creativecommons.org/ns#"
   xmlns:rdf="http://www.w3.org/1999/02/22-rdf-syntax-ns#"
   xmlns:svg="http://www.w3.org/2000/svg"
   xmlns="http://www.w3.org/2000/svg"
   xmlns:sodipodi="http://sodipodi.sourceforge.net/DTD/sodipodi-0.dtd"
   xmlns:inkscape="http://www.inkscape.org/namespaces/inkscape"
   width="200.32115"
   height="203.5432"
   id="svg3022"
   version="1.1"
   inkscape:version="0.48.4 r9939"
   sodipodi:docname="logo_no-text.svg">
  <defs
     id="defs3024" />
  <sodipodi:namedview
     id="base"
     pagecolor="#ffffff"
     bordercolor="#666666"
     borderopacity="1.0"
     inkscape:pageopacity="0.0"
     inkscape:pageshadow="2"
     inkscape:zoom="1.4"
     inkscape:cx="103.12451"
     inkscape:cy="121.59962"
     inkscape:document-units="px"
     inkscape:current-layer="layer1"
     showgrid="false"
     borderlayer="false"
     fit-margin-top="8"
     fit-margin-left="8"
     fit-margin-right="8"
     fit-margin-bottom="8"
     inkscape:window-width="922"
     inkscape:window-height="765"
     inkscape:window-x="2"
     inkscape:window-y="73"
     inkscape:window-maximized="0" />
  <metadata
     id="metadata3027">
    <rdf:RDF>
      <cc:Work
         rdf:about="">
        <dc:format>image/svg+xml</dc:format>
        <dc:type
           rdf:resource="http://purl.org/dc/dcmitype/StillImage" />
        <dc:title></dc:title>
      </cc:Work>
    </rdf:RDF>
  </metadata>
  <g
     inkscape:label="Layer 1"
     inkscape:groupmode="layer"
     id="layer1"
     transform="translate(-251.26801,-430.59059)">
    <path
       inkscape:connector-curvature="0"
       style="fill:#333333;fill-opacity:1;fill-rule:evenodd;stroke:none;stroke-width:0.21043675;marker:none;visibility:visible;display:inline;overflow:visible;enable-background:accumulate"
       d="m 359.44728,438.5989 c -26.6395,0.67567 -50.29528,13.4783 -65.65625,33.0625 14.42242,-10.85768 32.35154,-17.3125 51.78125,-17.3125 24.94068,0 47.40942,10.64654 63.15625,27.59375 1.73008,-1.56265 5.97608,-5.42194 16.71871,-15.125 -15.77362,-17.33604 -38.5144,-28.21875 -63.78121,-28.21875 -0.74361,0 -1.47963,-0.0187 -2.21875,0 z m -65.65625,33.0625 c -0.0647,0.0487 -0.12295,0.10738 -0.1875,0.15625 l 0.0312,0.0312 c 0.0501,-0.0642 0.10601,-0.12344 0.15625,-0.1875 z"
       id="path3476" />
    <path
       sodipodi:type="arc"
       style="fill:#ff0000;fill-opacity:1;fill-rule:evenodd;stroke:none;stroke-width:0.10204082;marker:none;visibility:visible;display:inline;overflow:visible;enable-background:accumulate"
       id="path3472"
       sodipodi:cx="429.75"
       sodipodi:cy="-8.249999"
       sodipodi:rx="5.75"
       sodipodi:ry="5.75"
       d="m 435.5,-8.249999 c 0,3.1756373 -2.57436,5.75 -5.75,5.75 -3.17564,0 -5.75,-2.5743627 -5.75,-5.75 0,-3.175637 2.57436,-5.75 5.75,-5.75 3.17564,0 5.75,2.574363 5.75,5.75 z"
       transform="matrix(1.96,0,0,1.96,-425.48772,490.23765)" />
    <path
       inkscape:connector-curvature="0"
       style="fill:#333333;fill-opacity:1;fill-rule:evenodd;stroke:none;stroke-width:0.21043675;marker:none;visibility:visible;display:inline;overflow:visible;enable-background:accumulate"
       d="m 271.93543,576.31798 c 13.9049,22.73265 36.82019,36.81785 61.46109,40.32875 -16.61424,-7.0614 -31.16883,-19.361 -40.88369,-36.18765 -12.47034,-21.59926 -14.48454,-46.38103 -7.68123,-68.49168 -2.21834,-0.71697 -7.68358,-2.46447 -21.45801,-6.91637 -7.12662,22.32842 -5.18094,47.46376 7.45247,69.34546 0.3718,0.64398 0.72358,1.29077 1.10937,1.92149 z m 61.46109,40.32875 c 0.0745,0.032 0.15446,0.053 0.22907,0.084 l 0.0114,-0.043 c -0.0806,-0.011 -0.15992,-0.03 -0.24051,-0.042 z"
       id="path3486" />
    <path
       sodipodi:type="arc"
       style="fill:#ff0000;fill-opacity:1;fill-rule:evenodd;stroke:none;stroke-width:0.10204082;marker:none;visibility:visible;display:inline;overflow:visible;enable-background:accumulate"
       id="path3488"
       sodipodi:cx="429.75"
       sodipodi:cy="-8.249999"
       sodipodi:rx="5.75"
       sodipodi:ry="5.75"
       d="m 435.5,-8.249999 c 0,3.1756373 -2.57436,5.75 -5.75,5.75 -3.17564,0 -5.75,-2.5743627 -5.75,-5.75 0,-3.175637 2.57436,-5.75 5.75,-5.75 3.17564,0 5.75,2.574363 5.75,5.75 z"
       transform="matrix(-0.98,-1.6974098,1.6974098,-0.98,709.12344,1230.2722)" />
    <path
       inkscape:connector-curvature="0"
       style="fill:#333333;fill-opacity:1;fill-rule:evenodd;stroke:none;stroke-width:0.21043675;marker:none;visibility:visible;display:inline;overflow:visible;enable-background:accumulate"
       d="m 433.13204,582.90808 c 12.7346,-23.40832 13.4751,-50.29614 4.1951,-73.39123 2.1918,17.91903 -1.1827,36.6735 -10.8975,53.50013 -12.47038,21.59926 -32.92492,35.73445 -55.47505,40.89805 0.48826,2.2796 1.7075,7.8864 4.73926,22.0414 22.90028,-4.9924 43.69537,-19.2452 56.32879,-41.12686 0.3718,-0.64398 0.756,-1.27202 1.1094,-1.92149 z m 4.1951,-73.39123 c -0.01,-0.0804 -0.032,-0.16016 -0.042,-0.2405 l -0.043,0.0114 c 0.031,0.0755 0.054,0.15353 0.084,0.22906 z"
       id="path3490" />
    <path
       sodipodi:type="arc"
       style="fill:#ff0000;fill-opacity:1;fill-rule:evenodd;stroke:none;stroke-width:0.10204082;marker:none;visibility:visible;display:inline;overflow:visible;enable-background:accumulate"
       id="path3492"
       sodipodi:cx="429.75"
       sodipodi:cy="-8.249999"
       sodipodi:rx="5.75"
       sodipodi:ry="5.75"
       d="m 435.5,-8.249999 c 0,3.1756373 -2.57436,5.75 -5.75,5.75 -3.17564,0 -5.75,-2.5743627 -5.75,-5.75 0,-3.175637 2.57436,-5.75 5.75,-5.75 3.17564,0 5.75,2.574363 5.75,5.75 z"
       transform="matrix(-0.98,1.6974098,-1.6974098,-0.98,780.87904,-122.68495)" />
    <path
       sodipodi:type="arc"
       style="fill:#808000;fill-opacity:1;fill-rule:evenodd;stroke:none;stroke-width:0.10204082;marker:none;visibility:visible;display:inline;overflow:visible;enable-background:accumulate"
       id="path3494"
       sodipodi:cx="429.75"
       sodipodi:cy="-8.249999"
       sodipodi:rx="5.75"
       sodipodi:ry="5.75"
       d="m 435.5,-8.249999 c 0,3.1756373 -2.57436,5.75 -5.75,5.75 -3.17564,0 -5.75,-2.5743627 -5.75,-5.75 0,-3.175637 2.57436,-5.75 5.75,-5.75 3.17564,0 5.75,2.574363 5.75,5.75 z"
       transform="matrix(-0.3066115,-1.9358691,1.9358691,-0.3066115,498.32844,1349.0621)" />
    <path
       sodipodi:type="arc"
       style="fill:#00ff00;fill-opacity:1;fill-rule:evenodd;stroke:none;stroke-width:0.10204082;marker:none;visibility:visible;display:inline;overflow:visible;enable-background:accumulate"
       id="path3496"
       sodipodi:cx="429.75"
       sodipodi:cy="-8.249999"
       sodipodi:rx="5.75"
       sodipodi:ry="5.75"
       d="m 435.5,-8.249999 c 0,3.1756373 -2.57436,5.75 -5.75,5.75 -3.17564,0 -5.75,-2.5743627 -5.75,-5.75 0,-3.175637 2.57436,-5.75 5.75,-5.75 3.17564,0 5.75,2.574363 5.75,5.75 z"
       transform="matrix(-0.3066115,-1.9358691,1.9358691,-0.3066115,513.97164,1359.6114)" />
    <path
       sodipodi:type="arc"
       style="fill:#0000ff;fill-opacity:1;fill-rule:evenodd;stroke:none;stroke-width:0.10204082;marker:none;visibility:visible;display:inline;overflow:visible;enable-background:accumulate"
       id="path3498"
       sodipodi:cx="429.75"
       sodipodi:cy="-8.249999"
       sodipodi:rx="5.75"
       sodipodi:ry="5.75"
       d="m 435.5,-8.249999 c 0,3.1756373 -2.57436,5.75 -5.75,5.75 -3.17564,0 -5.75,-2.5743627 -5.75,-5.75 0,-3.175637 2.57436,-5.75 5.75,-5.75 3.17564,0 5.75,2.574363 5.75,5.75 z"
       transform="matrix(-0.3066115,-1.9358691,1.9358691,-0.3066115,494.78724,1368.1529)" />
  </g>
</svg>
