<?xml version="1.0" encoding="UTF-8" standalone="no"?>
<!-- Created with Inkscape (http://www.inkscape.org/) -->
<svg
   xmlns:dc="http://purl.org/dc/elements/1.1/"
   xmlns:cc="http://creativecommons.org/ns#"
   xmlns:rdf="http://www.w3.org/1999/02/22-rdf-syntax-ns#"
   xmlns:svg="http://www.w3.org/2000/svg"
   xmlns="http://www.w3.org/2000/svg"
   xmlns:sodipodi="http://sodipodi.sourceforge.net/DTD/sodipodi-0.dtd"
   xmlns:inkscape="http://www.inkscape.org/namespaces/inkscape"
   width="720"
   height="200"
   id="svg2396"
   sodipodi:version="0.32"
   inkscape:version="0.46"
   version="1.0"
   sodipodi:docname="logo_v11.svg"
   inkscape:output_extension="org.inkscape.output.svg.inkscape"
   inkscape:export-filename="/home/kaefert/Daten/Data/Jobs/FH-Campus Wien/ATOM/logo-entwurf/logo_v10.png"
   inkscape:export-xdpi="90"
   inkscape:export-ydpi="90">
  <defs
     id="defs2398">
    <inkscape:perspective
       sodipodi:type="inkscape:persp3d"
       inkscape:vp_x="0 : 526.18109 : 1"
       inkscape:vp_y="0 : 1000 : 0"
       inkscape:vp_z="744.09448 : 526.18109 : 1"
       inkscape:persp3d-origin="372.04724 : 350.78739 : 1"
       id="perspective2404" />
  </defs>
  <sodipodi:namedview
     id="base"
     pagecolor="#ffffff"
     bordercolor="#666666"
     borderopacity="1.0"
     inkscape:pageopacity="0.0"
     inkscape:pageshadow="2"
     inkscape:zoom="2"
     inkscape:cx="349.37943"
     inkscape:cy="108.75641"
     inkscape:document-units="px"
     inkscape:current-layer="layer1"
     showgrid="false"
     inkscape:window-width="1679"
     inkscape:window-height="975"
     inkscape:window-x="1"
     inkscape:window-y="49" />
  <metadata
     id="metadata2401">
    <rdf:RDF>
      <cc:Work
         rdf:about="">
        <dc:format>image/svg+xml</dc:format>
        <dc:type
           rdf:resource="http://purl.org/dc/dcmitype/StillImage" />
      </cc:Work>
    </rdf:RDF>
  </metadata>
  <g
     inkscape:label="Ebene 1"
     inkscape:groupmode="layer"
     id="layer1">
    <text
       xml:space="preserve"
       style="font-size:247.3469696px;font-style:normal;font-weight:normal;line-height:125%;fill:#000000;fill-opacity:1;stroke:none;stroke-width:1px;stroke-linecap:butt;stroke-linejoin:miter;stroke-opacity:1;font-family:Bitstream Vera Sans"
       x="2.8295717"
       y="192.49612"
       id="text2406"
       transform="scale(0.9961573,1.0038575)"
       sodipodi:linespacing="125%"><tspan
         sodipodi:role="line"
         id="tspan2408"
         x="2.8295717"
         y="192.49612"
         style="font-size:247.3469696px;font-style:normal;font-variant:normal;font-weight:normal;font-stretch:normal;text-align:start;line-height:125%;writing-mode:lr-tb;text-anchor:start;font-family:Sawasdee;-inkscape-font-specification:Sawasdee">AT</tspan></text>
    <text
       xml:space="preserve"
       style="font-size:40px;font-style:normal;font-weight:normal;fill:#000000;fill-opacity:1;stroke:none;stroke-width:1px;stroke-linecap:butt;stroke-linejoin:miter;stroke-opacity:1;font-family:Bitstream Vera Sans"
       x="362.85715"
       y="-19.285715"
       id="text3307"><tspan
         sodipodi:role="line"
         id="tspan3309"
         x="362.85715"
         y="-19.285715" /></text>
    <text
       xml:space="preserve"
       style="font-size:247.3469696px;font-style:normal;font-weight:normal;line-height:125%;fill:#000000;fill-opacity:1;stroke:none;stroke-width:1px;stroke-linecap:butt;stroke-linejoin:miter;stroke-opacity:1;font-family:Bitstream Vera Sans"
       x="486.90036"
       y="192.49413"
       id="text3315"
       transform="scale(0.9961573,1.0038575)"
       sodipodi:linespacing="125%"><tspan
         sodipodi:role="line"
         id="tspan3317"
         x="486.90036"
         y="192.49413"
         style="font-size:247.3469696px;font-style:normal;font-variant:normal;font-weight:normal;font-stretch:normal;text-align:start;line-height:125%;writing-mode:lr-tb;text-anchor:start;font-family:Sawasdee;-inkscape-font-specification:Sawasdee">M</tspan></text>
    <path
       style="fill:#333333;fill-opacity:1;fill-rule:evenodd;stroke:none;stroke-width:0.21043675;marker:none;marker-start:none;marker-mid:none;marker-end:none;stroke-miterlimit:4;stroke-opacity:1;visibility:visible;display:inline;overflow:visible;enable-background:accumulate"
       d="M 384.375,8.53125 C 357.7355,9.2069174 334.07972,22.009542 318.71875,41.59375 C 333.14117,30.736061 351.07029,24.28125 370.5,24.28125 C 395.44068,24.28125 417.90942,34.927785 433.65625,51.875 C 435.38633,50.312347 439.63233,46.453059 450.375,36.75 C 434.60134,19.413959 411.86056,8.5312502 386.59375,8.53125 C 385.85014,8.53125 385.11412,8.5125035 384.375,8.53125 z M 318.71875,41.59375 C 318.65406,41.642451 318.5958,41.701121 318.53125,41.75 L 318.5625,41.78125 C 318.61256,41.717052 318.66851,41.657803 318.71875,41.59375 z"
       id="path3476" />
    <path
       sodipodi:type="arc"
       style="opacity:1;fill:#ff0000;fill-opacity:1;fill-rule:evenodd;stroke:none;stroke-width:0.10204082;marker:none;marker-start:none;marker-mid:none;marker-end:none;stroke-miterlimit:4;stroke-dasharray:none;stroke-opacity:1;visibility:visible;display:inline;overflow:visible;enable-background:accumulate"
       id="path3472"
       sodipodi:cx="429.75"
       sodipodi:cy="-8.249999"
       sodipodi:rx="5.75"
       sodipodi:ry="5.75"
       d="M 435.5,-8.249999 A 5.75,5.75 0 1 1 424,-8.249999 A 5.75,5.75 0 1 1 435.5,-8.249999 z"
       transform="matrix(1.96,0,0,1.96,-400.56,60.169999)" />
    <path
       style="fill:#333333;fill-opacity:1;fill-rule:evenodd;stroke:none;stroke-width:0.21043675;marker:none;marker-start:none;marker-mid:none;marker-end:none;stroke-miterlimit:4;stroke-opacity:1;visibility:visible;display:inline;overflow:visible;enable-background:accumulate"
       d="M 296.86315,146.25033 C 310.76805,168.98298 333.68334,183.06818 358.32424,186.57906 C 341.71,179.51772 327.15541,167.21806 317.44055,150.39143 C 304.97021,128.79217 302.95601,104.0104 309.75932,81.899743 C 307.54098,81.182776 302.07574,79.435276 288.30131,74.98338 C 281.17469,97.311796 283.12037,122.44714 295.75378,144.32884 C 296.12558,144.97282 296.47736,145.61961 296.86315,146.25033 z M 358.32424,186.57906 C 358.39876,186.61074 358.4787,186.63185 358.55331,186.66332 L 358.56475,186.62063 C 358.48412,186.60937 358.40483,186.59055 358.32424,186.57906 z"
       id="path3486" />
    <path
       sodipodi:type="arc"
       style="opacity:1;fill:#ff0000;fill-opacity:1;fill-rule:evenodd;stroke:none;stroke-width:0.10204082;marker:none;marker-start:none;marker-mid:none;marker-end:none;stroke-miterlimit:4;stroke-dasharray:none;stroke-opacity:1;visibility:visible;display:inline;overflow:visible;enable-background:accumulate"
       id="path3488"
       sodipodi:cx="429.75"
       sodipodi:cy="-8.249999"
       sodipodi:rx="5.75"
       sodipodi:ry="5.75"
       d="M 435.5,-8.249999 A 5.75,5.75 0 1 1 424,-8.249999 A 5.75,5.75 0 1 1 435.5,-8.249999 z"
       transform="matrix(-0.98,-1.6974098,1.6974098,-0.98,734.05112,800.20461)" />
    <path
       style="fill:#333333;fill-opacity:1;fill-rule:evenodd;stroke:none;stroke-width:0.21043675;marker:none;marker-start:none;marker-mid:none;marker-end:none;stroke-miterlimit:4;stroke-opacity:1;visibility:visible;display:inline;overflow:visible;enable-background:accumulate"
       d="M 458.05972,152.84043 C 470.79433,129.43211 471.53482,102.54429 462.25488,79.449199 C 464.44671,97.368226 461.07218,116.1227 451.35732,132.94933 C 438.88698,154.54859 418.43244,168.68382 395.88231,173.84736 C 396.37057,176.12699 397.58981,181.73377 400.62157,195.88873 C 423.52185,190.89636 444.31694,176.64362 456.95035,154.76192 C 457.32215,154.11794 457.7064,153.4899 458.05972,152.84043 z M 462.25488,79.449199 C 462.24505,79.368825 462.22337,79.289036 462.21332,79.208694 L 462.17063,79.220133 C 462.2012,79.295585 462.22453,79.373663 462.25488,79.449199 z"
       id="path3490" />
    <path
       sodipodi:type="arc"
       style="opacity:1;fill:#ff0000;fill-opacity:1;fill-rule:evenodd;stroke:none;stroke-width:0.10204082;marker:none;marker-start:none;marker-mid:none;marker-end:none;stroke-miterlimit:4;stroke-dasharray:none;stroke-opacity:1;visibility:visible;display:inline;overflow:visible;enable-background:accumulate"
       id="path3492"
       sodipodi:cx="429.75"
       sodipodi:cy="-8.249999"
       sodipodi:rx="5.75"
       sodipodi:ry="5.75"
       d="M 435.5,-8.249999 A 5.75,5.75 0 1 1 424,-8.249999 A 5.75,5.75 0 1 1 435.5,-8.249999 z"
       transform="matrix(-0.98,1.6974098,-1.6974098,-0.98,805.80675,-552.7526)" />
    <path
       sodipodi:type="arc"
       style="opacity:1;fill:#808000;fill-opacity:1;fill-rule:evenodd;stroke:none;stroke-width:0.10204082;marker:none;marker-start:none;marker-mid:none;marker-end:none;stroke-miterlimit:4;stroke-dasharray:none;stroke-opacity:1;visibility:visible;display:inline;overflow:visible;enable-background:accumulate"
       id="path3494"
       sodipodi:cx="429.75"
       sodipodi:cy="-8.249999"
       sodipodi:rx="5.75"
       sodipodi:ry="5.75"
       d="M 435.5,-8.249999 A 5.75,5.75 0 1 1 424,-8.249999 A 5.75,5.75 0 1 1 435.5,-8.249999 z"
       transform="matrix(-0.3066115,-1.9358691,1.9358691,-0.3066115,523.25614,918.99446)" />
    <path
       sodipodi:type="arc"
       style="opacity:1;fill:#00ff00;fill-opacity:1;fill-rule:evenodd;stroke:none;stroke-width:0.10204082;marker:none;marker-start:none;marker-mid:none;marker-end:none;stroke-miterlimit:4;stroke-dasharray:none;stroke-opacity:1;visibility:visible;display:inline;overflow:visible;enable-background:accumulate"
       id="path3496"
       sodipodi:cx="429.75"
       sodipodi:cy="-8.249999"
       sodipodi:rx="5.75"
       sodipodi:ry="5.75"
       d="M 435.5,-8.249999 A 5.75,5.75 0 1 1 424,-8.249999 A 5.75,5.75 0 1 1 435.5,-8.249999 z"
       transform="matrix(-0.3066115,-1.9358691,1.9358691,-0.3066115,538.8994,929.54382)" />
    <path
       sodipodi:type="arc"
       style="opacity:1;fill:#0000ff;fill-opacity:1;fill-rule:evenodd;stroke:none;stroke-width:0.10204082;marker:none;marker-start:none;marker-mid:none;marker-end:none;stroke-miterlimit:4;stroke-dasharray:none;stroke-opacity:1;visibility:visible;display:inline;overflow:visible;enable-background:accumulate"
       id="path3498"
       sodipodi:cx="429.75"
       sodipodi:cy="-8.249999"
       sodipodi:rx="5.75"
       sodipodi:ry="5.75"
       d="M 435.5,-8.249999 A 5.75,5.75 0 1 1 424,-8.249999 A 5.75,5.75 0 1 1 435.5,-8.249999 z"
       transform="matrix(-0.3066115,-1.9358691,1.9358691,-0.3066115,519.715,938.08528)" />
    <path
       sodipodi:type="arc"
       style="opacity:1;fill:#1a1a1a;fill-opacity:1;fill-rule:evenodd;stroke:none;stroke-width:0.10204082;marker:none;marker-start:none;marker-mid:none;marker-end:none;stroke-miterlimit:4;stroke-dasharray:none;stroke-opacity:1;visibility:visible;display:inline;overflow:visible;enable-background:accumulate"
       id="path3533"
       sodipodi:cx="429.75"
       sodipodi:cy="-8.249999"
       sodipodi:rx="5.75"
       sodipodi:ry="5.75"
       d="M 435.5,-8.249999 A 5.75,5.75 0 1 1 424,-8.249999 A 5.75,5.75 0 1 1 435.5,-8.249999 z"
       transform="matrix(1.5295872,0,0,1.5295872,-489.1596,198.24471)" />
    <path
       sodipodi:type="arc"
       style="opacity:1;fill:#1a1a1a;fill-opacity:1;fill-rule:evenodd;stroke:none;stroke-width:0.10204082;marker:none;marker-start:none;marker-mid:none;marker-end:none;stroke-miterlimit:4;stroke-dasharray:none;stroke-opacity:1;visibility:visible;display:inline;overflow:visible;enable-background:accumulate"
       id="path3207"
       sodipodi:cx="429.75"
       sodipodi:cy="-8.249999"
       sodipodi:rx="5.75"
       sodipodi:ry="5.75"
       d="M 435.5,-8.249999 A 5.75,5.75 0 1 1 424,-8.249999 A 5.75,5.75 0 1 1 435.5,-8.249999 z"
       transform="matrix(1.5295872,0,0,1.5295872,-420.69684,198.38857)" />
    <path
       sodipodi:type="arc"
       style="opacity:1;fill:#1a1a1a;fill-opacity:1;fill-rule:evenodd;stroke:none;stroke-width:0.10204082;marker:none;marker-start:none;marker-mid:none;marker-end:none;stroke-miterlimit:4;stroke-dasharray:none;stroke-opacity:1;visibility:visible;display:inline;overflow:visible;enable-background:accumulate"
       id="path3209"
       sodipodi:cx="429.75"
       sodipodi:cy="-8.249999"
       sodipodi:rx="5.75"
       sodipodi:ry="5.75"
       d="M 435.5,-8.249999 A 5.75,5.75 0 1 1 424,-8.249999 A 5.75,5.75 0 1 1 435.5,-8.249999 z"
       transform="matrix(1.5295872,0,0,1.5295872,-203.00349,198.12341)" />
    <path
       sodipodi:type="arc"
       style="opacity:1;fill:#1a1a1a;fill-opacity:1;fill-rule:evenodd;stroke:none;stroke-width:0.10204082;marker:none;marker-start:none;marker-mid:none;marker-end:none;stroke-miterlimit:4;stroke-dasharray:none;stroke-opacity:1;visibility:visible;display:inline;overflow:visible;enable-background:accumulate"
       id="path3211"
       sodipodi:cx="429.75"
       sodipodi:cy="-8.249999"
       sodipodi:rx="5.75"
       sodipodi:ry="5.75"
       d="M 435.5,-8.249999 A 5.75,5.75 0 1 1 424,-8.249999 A 5.75,5.75 0 1 1 435.5,-8.249999 z"
       transform="matrix(1.5295872,0,0,1.5295872,43.08008,198.1234)" />
  </g>
</svg>
